<svg width="147" height="53" viewBox="0 0 147 53" fill="none" xmlns="http://www.w3.org/2000/svg">
<rect x="0.5" y="0.5" width="146" height="52" stroke="#E1DBD7"/>
<path d="M27.5493 32.2521C26.6673 32.2521 25.8588 32.0946 25.1238 31.7796C24.3888 31.4576 23.7973 30.9851 23.3493 30.3621C22.9012 29.7391 22.6702 28.9691 22.6562 28.0521H24.2523C24.2523 28.6681 24.4028 29.1756 24.7037 29.5746C25.0048 29.9666 25.4038 30.2606 25.9008 30.4566C26.3977 30.6456 26.9403 30.7401 27.5283 30.7401C28.1653 30.7401 28.7183 30.6386 29.1873 30.4356C29.6563 30.2326 30.0168 29.9666 30.2688 29.6376C30.5278 29.3016 30.6573 28.9341 30.6573 28.5351C30.6573 27.9751 30.4858 27.5236 30.1427 27.1806C29.7997 26.8306 29.2923 26.5471 28.6203 26.3301L26.2893 25.5111C25.1972 25.1191 24.3712 24.6711 23.8112 24.1671C23.2512 23.6631 22.9712 22.9561 22.9712 22.0461C22.9712 21.0241 23.3633 20.1911 24.1472 19.5471C24.9383 18.9031 26.0583 18.5811 27.5073 18.5811C28.8513 18.5811 29.9013 18.8926 30.6573 19.5156C31.4132 20.1316 31.8472 20.9611 31.9593 22.0041H30.3423C30.2372 21.3951 29.9503 20.9226 29.4813 20.5866C29.0193 20.2436 28.3613 20.0721 27.5073 20.0721C26.6393 20.0721 25.9637 20.2646 25.4807 20.6496C24.9978 21.0346 24.7563 21.5211 24.7563 22.1091C24.7563 22.5921 24.9068 22.9771 25.2078 23.2641C25.5158 23.5441 25.9952 23.7961 26.6463 24.0201L29.3763 24.9651C30.3212 25.2801 31.0667 25.7211 31.6128 26.2881C32.1658 26.8551 32.4423 27.5901 32.4423 28.4931C32.4423 29.1931 32.2533 29.8266 31.8752 30.3936C31.5042 30.9606 30.9548 31.4121 30.2268 31.7481C29.4988 32.0841 28.6063 32.2521 27.5493 32.2521Z" fill="white" fill-opacity="0.85"/>
<path d="M36.0226 18.8121H37.6606V24.6291H44.1916V18.8121H45.8086V32.0001H44.1916V26.0361H37.6606V32.0001H36.0226V18.8121Z" fill="white" fill-opacity="0.85"/>
<path d="M54.7324 32.2521C53.6404 32.2521 52.6639 32.0001 51.8029 31.4961C50.9419 30.9921 50.2629 30.2361 49.7659 29.2281C49.2689 28.2131 49.0204 26.9461 49.0204 25.4271C49.0204 23.8871 49.2689 22.6131 49.7659 21.6051C50.2629 20.5901 50.9419 19.8341 51.8029 19.3371C52.6639 18.8331 53.6404 18.5811 54.7324 18.5811C55.8244 18.5811 56.8009 18.8331 57.6619 19.3371C58.5229 19.8411 59.2019 20.6006 59.6989 21.6156C60.1959 22.6306 60.4444 23.9011 60.4444 25.4271C60.4444 26.9601 60.1959 28.2341 59.6989 29.2491C59.2019 30.2571 58.5229 31.0096 57.6619 31.5066C56.8009 32.0036 55.8244 32.2521 54.7324 32.2521ZM54.7324 30.7401C55.9714 30.7401 56.9479 30.2886 57.6619 29.3856C58.3829 28.4826 58.7434 27.1561 58.7434 25.4061C58.7434 23.6911 58.3829 22.3716 57.6619 21.4476C56.9479 20.5166 55.9714 20.0511 54.7324 20.0511C53.5074 20.0511 52.5309 20.5166 51.8029 21.4476C51.0819 22.3786 50.7214 23.7051 50.7214 25.4271C50.7214 27.1701 51.0819 28.4931 51.8029 29.3961C52.5309 30.2921 53.5074 30.7401 54.7324 30.7401Z" fill="white" fill-opacity="0.85"/>
<path d="M63.5841 32.0001V18.8121H67.8261C69.2751 18.8121 70.3811 19.1796 71.1441 19.9146C71.9141 20.6426 72.2991 21.6331 72.2991 22.8861C72.2991 24.1251 71.9141 25.1086 71.1441 25.8366C70.3811 26.5576 69.2751 26.9181 67.8261 26.9181H65.2431V32.0001H63.5841ZM65.2431 25.4901H67.8261C68.7431 25.4901 69.4361 25.2556 69.9051 24.7866C70.3811 24.3176 70.6191 23.6841 70.6191 22.8861C70.6191 22.0741 70.3811 21.4266 69.9051 20.9436C69.4361 20.4606 68.7431 20.2191 67.8261 20.2191H65.2431V25.4901Z" fill="white" fill-opacity="0.85"/>
<path d="M80.2164 18.8121H82.1694L88.8684 29.6691H88.7214V18.8121H90.3594V32.0001H88.5324L81.6024 20.7861H81.8544V32.0001H80.2164V18.8121Z" fill="white" fill-opacity="0.85"/>
<path d="M99.2549 32.2521C98.1629 32.2521 97.1864 32.0001 96.3254 31.4961C95.4644 30.9921 94.7854 30.2361 94.2884 29.2281C93.7914 28.2131 93.5429 26.9461 93.5429 25.4271C93.5429 23.8871 93.7914 22.6131 94.2884 21.6051C94.7854 20.5901 95.4644 19.8341 96.3254 19.3371C97.1864 18.8331 98.1629 18.5811 99.2549 18.5811C100.347 18.5811 101.323 18.8331 102.184 19.3371C103.045 19.8411 103.724 20.6006 104.221 21.6156C104.718 22.6306 104.967 23.9011 104.967 25.4271C104.967 26.9601 104.718 28.2341 104.221 29.2491C103.724 30.2571 103.045 31.0096 102.184 31.5066C101.323 32.0036 100.347 32.2521 99.2549 32.2521ZM99.2549 30.7401C100.494 30.7401 101.47 30.2886 102.184 29.3856C102.905 28.4826 103.266 27.1561 103.266 25.4061C103.266 23.6911 102.905 22.3716 102.184 21.4476C101.47 20.5166 100.494 20.0511 99.2549 20.0511C98.0299 20.0511 97.0534 20.5166 96.3254 21.4476C95.6044 22.3786 95.2439 23.7051 95.2439 25.4271C95.2439 27.1701 95.6044 28.4931 96.3254 29.3961C97.0534 30.2921 98.0299 30.7401 99.2549 30.7401Z" fill="white" fill-opacity="0.85"/>
<path d="M106.322 18.8121H108.17L111.593 30.5511H111.11L114.617 20.1771H115.73L119.195 30.4671H118.733L122.66 18.8121H124.487L119.825 32.0001H118.103L115.058 23.0541H115.373L112.223 32.0001H110.501L106.322 18.8121Z" fill="white" fill-opacity="0.85"/>
</svg>
