<svg width="26" height="26" viewBox="0 0 26 26" fill="none" xmlns="http://www.w3.org/2000/svg">
<path d="M12.9998 22.7499C11.6315 21.5827 10.3632 20.3032 9.20817 18.9246C7.47484 16.8544 5.4165 13.7712 5.4165 10.8332C5.41575 9.33277 5.86014 7.86581 6.69342 6.61801C7.52671 5.3702 8.71143 4.39764 10.0977 3.82341C11.4839 3.24918 13.0093 3.09909 14.4809 3.39213C15.9524 3.68517 17.304 4.40818 18.3645 5.46965C19.0706 6.17258 19.6302 7.00856 20.0111 7.92922C20.3919 8.84987 20.5863 9.83692 20.5832 10.8332C20.5832 13.7712 18.5248 16.8544 16.7915 18.9246C15.6365 20.3032 14.3682 21.5827 12.9998 22.7499ZM12.9998 7.58323C12.1379 7.58323 11.3112 7.92564 10.7017 8.53513C10.0922 9.14463 9.74984 9.97128 9.74984 10.8332C9.74984 11.6952 10.0922 12.5218 10.7017 13.1313C11.3112 13.7408 12.1379 14.0832 12.9998 14.0832C13.8618 14.0832 14.6884 13.7408 15.2979 13.1313C15.9074 12.5218 16.2498 11.6952 16.2498 10.8332C16.2498 9.97128 15.9074 9.14463 15.2979 8.53513C14.6884 7.92564 13.8618 7.58323 12.9998 7.58323Z" fill="#82746C"/>
</svg>
