<svg width="260" height="176" viewBox="0 0 260 176" fill="none" xmlns="http://www.w3.org/2000/svg">
<path d="M247.188 7.71094H244.234V6.96875C244.233 6.5363 244.069 6.12212 243.779 5.81633C243.49 5.51054 243.097 5.33789 242.688 5.33594H239.312C238.903 5.33789 238.51 5.51054 238.221 5.81633C237.931 6.12212 237.767 6.5363 237.766 6.96875V7.71094H234.812C234.701 7.71094 234.593 7.75785 234.514 7.84137C234.435 7.92488 234.391 8.03815 234.391 8.15625C234.391 8.27435 234.435 8.38762 234.514 8.47113C234.593 8.55465 234.701 8.60156 234.812 8.60156H235.516V19.4375C235.516 19.7131 235.619 19.9774 235.804 20.1722C235.989 20.3671 236.239 20.4766 236.5 20.4766H245.5C245.761 20.4766 246.011 20.3671 246.196 20.1722C246.381 19.9774 246.484 19.7131 246.484 19.4375V8.60156H247.188C247.299 8.60156 247.407 8.55465 247.486 8.47113C247.565 8.38762 247.609 8.27435 247.609 8.15625C247.609 8.03815 247.565 7.92488 247.486 7.84137C247.407 7.75785 247.299 7.71094 247.188 7.71094ZM238.609 6.96875C238.609 6.77191 238.683 6.58313 238.815 6.44394C238.947 6.30476 239.126 6.22656 239.312 6.22656H242.688C242.874 6.22656 243.053 6.30476 243.185 6.44394C243.317 6.58313 243.391 6.77191 243.391 6.96875V7.71094H238.609V6.96875ZM245.641 19.4375C245.641 19.4769 245.626 19.5146 245.599 19.5425C245.573 19.5703 245.537 19.5859 245.5 19.5859H236.5C236.463 19.5859 236.427 19.5703 236.401 19.5425C236.374 19.5146 236.359 19.4769 236.359 19.4375V8.60156H245.641V19.4375ZM239.734 11.7188V16.4688C239.734 16.5869 239.69 16.7001 239.611 16.7836C239.532 16.8671 239.424 16.9141 239.312 16.9141C239.201 16.9141 239.093 16.8671 239.014 16.7836C238.935 16.7001 238.891 16.5869 238.891 16.4688V11.7188C238.891 11.6006 238.935 11.4874 239.014 11.4039C239.093 11.3204 239.201 11.2734 239.312 11.2734C239.424 11.2734 239.532 11.3204 239.611 11.4039C239.69 11.4874 239.734 11.6006 239.734 11.7188ZM243.109 11.7188V16.4688C243.109 16.5869 243.065 16.7001 242.986 16.7836C242.907 16.8671 242.799 16.9141 242.688 16.9141C242.576 16.9141 242.468 16.8671 242.389 16.7836C242.31 16.7001 242.266 16.5869 242.266 16.4688V11.7188C242.266 11.6006 242.31 11.4874 242.389 11.4039C242.468 11.3204 242.576 11.2734 242.688 11.2734C242.799 11.2734 242.907 11.3204 242.986 11.4039C243.065 11.4874 243.109 11.6006 243.109 11.7188Z" fill="#656565" fill-opacity="0.62"/>
</svg>
