<svg width="22" height="27" viewBox="0 0 22 27" fill="none" xmlns="http://www.w3.org/2000/svg">
<path d="M18.5625 7.17181H14.7641C14.6745 6.0228 14.2392 4.95599 13.5432 4.17965C12.8473 3.4033 11.9405 2.97314 11 2.97314C10.0595 2.97314 9.15274 3.4033 8.45676 4.17965C7.76077 4.95599 7.32551 6.0228 7.23594 7.17181H3.4375C3.164 7.17181 2.90169 7.30515 2.7083 7.5425C2.5149 7.77985 2.40625 8.10177 2.40625 8.43743V21.9374C2.40625 22.2731 2.5149 22.595 2.7083 22.8324C2.90169 23.0697 3.164 23.2031 3.4375 23.2031H18.5625C18.836 23.2031 19.0983 23.0697 19.2917 22.8324C19.4851 22.595 19.5938 22.2731 19.5938 21.9374V8.43743C19.5938 8.10177 19.4851 7.77985 19.2917 7.5425C19.0983 7.30515 18.836 7.17181 18.5625 7.17181ZM11 3.79681C11.7608 3.79852 12.4946 4.14328 13.0618 4.76553C13.629 5.38778 13.9902 6.24414 14.0766 7.17181H7.92344C8.00984 6.24414 8.37099 5.38778 8.93822 4.76553C9.50544 4.14328 10.2392 3.79852 11 3.79681ZM18.9062 21.9374C18.9062 22.0493 18.87 22.1566 18.8056 22.2357C18.7411 22.3149 18.6537 22.3593 18.5625 22.3593H3.4375C3.34633 22.3593 3.2589 22.3149 3.19443 22.2357C3.12997 22.1566 3.09375 22.0493 3.09375 21.9374V8.43743C3.09375 8.32554 3.12997 8.21824 3.19443 8.13912C3.2589 8.06 3.34633 8.01556 3.4375 8.01556H18.5625C18.6537 8.01556 18.7411 8.06 18.8056 8.13912C18.87 8.21824 18.9062 8.32554 18.9062 8.43743V21.9374Z" fill="black"/>
</svg>
