<svg width="401" height="41" viewBox="0 0 401 41" fill="none" xmlns="http://www.w3.org/2000/svg">
<path fill-rule="evenodd" clip-rule="evenodd" d="M369 8.838C369 8.35053 369.194 7.88303 369.538 7.53834C369.883 7.19365 370.351 7 370.838 7H389.16C389.402 6.99961 389.641 7.04687 389.864 7.13907C390.087 7.23127 390.29 7.36661 390.461 7.53734C390.632 7.70807 390.768 7.91083 390.86 8.13401C390.953 8.3572 391 8.59643 391 8.838V27.16C391 27.4016 390.953 27.6409 390.861 27.8642C390.768 28.0875 390.633 28.2904 390.462 28.4613C390.291 28.6322 390.088 28.7678 389.865 28.8602C389.642 28.9526 389.403 29.0001 389.161 29H370.838C370.597 29 370.357 28.9524 370.134 28.86C369.911 28.7676 369.709 28.6321 369.538 28.4613C369.367 28.2905 369.232 28.0878 369.14 27.8647C369.047 27.6416 369 27.4025 369 27.161V8.838ZM377.708 15.388H380.687V16.884C381.117 16.024 382.217 15.25 383.87 15.25C387.039 15.25 387.79 16.963 387.79 20.106V25.928H384.583V20.822C384.583 19.032 384.153 18.022 383.061 18.022C381.546 18.022 380.916 19.111 380.916 20.822V25.928H377.708V15.388ZM372.208 25.791H375.416V15.25H372.208V25.79V25.791ZM375.875 11.812C375.881 12.0867 375.832 12.3598 375.731 12.6153C375.63 12.8708 375.479 13.1036 375.287 13.3C375.095 13.4964 374.866 13.6525 374.612 13.759C374.359 13.8655 374.087 13.9204 373.812 13.9204C373.538 13.9204 373.266 13.8655 373.013 13.759C372.759 13.6525 372.53 13.4964 372.338 13.3C372.146 13.1036 371.995 12.8708 371.894 12.6153C371.793 12.3598 371.744 12.0867 371.75 11.812C371.762 11.2729 371.984 10.7598 372.37 10.3827C372.755 10.0056 373.273 9.79442 373.812 9.79442C374.352 9.79442 374.87 10.0056 375.255 10.3827C375.641 10.7598 375.863 11.2729 375.875 11.812Z" fill="black" fill-opacity="0.59"/>
<g clip-path="url(#clip0_191_37)">
<path d="M304.334 10.2178C304.152 9.53103 303.8 8.90928 303.312 8.41862C302.811 7.91288 302.197 7.55111 301.528 7.36745C299.024 6.6662 288.992 6.6662 288.992 6.6662C284.81 6.61565 280.629 6.83801 276.472 7.33204C275.803 7.52926 275.19 7.89911 274.688 8.4087C274.195 8.91304 273.838 9.53496 273.651 10.2164C273.203 12.783 272.985 15.3891 273 17.9995C272.984 20.6076 273.202 23.2129 273.651 25.7827C273.834 26.4613 274.19 27.0804 274.684 27.5805C275.179 28.0805 275.795 28.4418 276.472 28.633C279.01 29.3329 288.992 29.3329 288.992 29.3329C293.18 29.3835 297.366 29.1611 301.528 28.667C302.197 28.4834 302.811 28.1216 303.312 27.6159C303.799 27.1253 304.152 26.5035 304.332 25.8167C304.792 23.2511 305.016 20.6439 305 18.0321C305.035 15.4093 304.812 12.7898 304.334 10.2164V10.2178ZM285.803 22.8502V13.1503L294.15 18.001L285.803 22.8502Z" fill="black" fill-opacity="0.59"/>
</g>
<path d="M201.501 6.41895C194.829 6.41895 189.419 11.8287 189.419 18.5011C189.419 24.5307 193.837 29.5283 199.614 30.4382V21.9944H196.544V18.5011H199.614V15.8391C199.614 12.8086 201.418 11.1375 204.176 11.1375C205.498 11.1375 206.883 11.3731 206.883 11.3731V14.3444H205.356C203.857 14.3444 203.388 15.2772 203.388 16.233V18.4987H206.737L206.201 21.9919H203.388V30.4358C209.166 29.5307 213.583 24.5319 213.583 18.5011C213.583 11.8287 208.173 6.41895 201.501 6.41895Z" fill="black" fill-opacity="0.59"/>
<path d="M124.628 11.1431C123.758 11.5285 122.824 11.7889 121.842 11.9066C122.855 11.3001 123.614 10.3456 123.975 9.22118C123.023 9.78679 121.981 10.1849 120.894 10.3983C120.163 9.61791 119.195 9.10068 118.14 8.92688C117.085 8.75308 116.002 8.93242 115.06 9.43707C114.117 9.94171 113.368 10.7434 112.927 11.7177C112.487 12.6921 112.381 13.7845 112.625 14.8253C110.696 14.7285 108.808 14.227 107.085 13.3534C105.362 12.4798 103.842 11.2536 102.623 9.75451C102.206 10.4733 101.967 11.3066 101.967 12.1941C101.966 12.993 102.163 13.7798 102.539 14.4844C102.916 15.1891 103.461 15.79 104.125 16.2337C103.354 16.2092 102.601 16.001 101.927 15.6264V15.6889C101.927 16.8095 102.315 17.8955 103.024 18.7628C103.734 19.6302 104.721 20.2253 105.82 20.4472C105.105 20.6407 104.356 20.6692 103.628 20.5306C103.938 21.4947 104.542 22.3379 105.355 22.9419C106.167 23.546 107.149 23.8807 108.161 23.8993C106.443 25.2487 104.32 25.9806 102.134 25.9774C101.747 25.9775 101.361 25.9549 100.976 25.9097C103.194 27.3359 105.776 28.0929 108.414 28.0899C117.341 28.0899 122.221 20.6962 122.221 14.2837C122.221 14.0753 122.216 13.8649 122.206 13.6566C123.156 12.9701 123.975 12.12 124.626 11.1462L124.628 11.1431Z" fill="black" fill-opacity="0.59"/>
<path fill-rule="evenodd" clip-rule="evenodd" d="M14.7759 7.11074C15.9978 7.05449 16.3873 7.04199 19.4998 7.04199C22.6123 7.04199 23.0019 7.05553 24.2228 7.11074C25.4436 7.16595 26.2769 7.36074 27.0061 7.64303C27.7696 7.93158 28.4623 8.38262 29.0353 8.96595C29.6186 9.53783 30.0686 10.2295 30.3561 10.9941C30.6394 11.7232 30.8332 12.5566 30.8894 13.7753C30.9457 14.9993 30.9582 15.3889 30.9582 18.5003C30.9582 21.6128 30.9446 22.0024 30.8894 23.2243C30.8342 24.443 30.6394 25.2764 30.3561 26.0055C30.0686 26.7702 29.6178 27.463 29.0353 28.0357C28.4623 28.6191 27.7696 29.0691 27.0061 29.3566C26.2769 29.6399 25.4436 29.8337 24.2248 29.8899C23.0019 29.9462 22.6123 29.9587 19.4998 29.9587C16.3873 29.9587 15.9978 29.9451 14.7759 29.8899C13.5571 29.8347 12.7238 29.6399 11.9946 29.3566C11.23 29.069 10.5372 28.6183 9.96442 28.0357C9.38148 27.4635 8.93037 26.771 8.64255 26.0066C8.36025 25.2774 8.1665 24.4441 8.11025 23.2253C8.054 22.0014 8.0415 21.6118 8.0415 18.5003C8.0415 15.3878 8.05505 14.9982 8.11025 13.7774C8.16546 12.5566 8.36025 11.7232 8.64255 10.9941C8.9308 10.2296 9.38225 9.53711 9.96546 8.96491C10.5374 8.3821 11.2295 7.931 11.9936 7.64303C12.7228 7.36074 13.5561 7.16699 14.7748 7.11074H14.7759ZM24.13 9.17324C22.9217 9.11803 22.5592 9.10658 19.4998 9.10658C16.4405 9.10658 16.078 9.11803 14.8696 9.17324C13.7519 9.22428 13.1457 9.41074 12.7415 9.56803C12.2071 9.77637 11.8248 10.0232 11.4238 10.4243C11.0436 10.7941 10.7511 11.2444 10.5675 11.742C10.4103 12.1462 10.2238 12.7524 10.1728 13.8701C10.1175 15.0785 10.1061 15.441 10.1061 18.5003C10.1061 21.5597 10.1175 21.9222 10.1728 23.1305C10.2238 24.2482 10.4103 24.8545 10.5675 25.2587C10.7509 25.7555 11.0436 26.2066 11.4238 26.5764C11.7936 26.9566 12.2446 27.2493 12.7415 27.4326C13.1457 27.5899 13.7519 27.7764 14.8696 27.8274C16.078 27.8826 16.4394 27.8941 19.4998 27.8941C22.5603 27.8941 22.9217 27.8826 24.13 27.8274C25.2478 27.7764 25.854 27.5899 26.2582 27.4326C26.7925 27.2243 27.1748 26.9774 27.5759 26.5764C27.9561 26.2066 28.2488 25.7555 28.4321 25.2587C28.5894 24.8545 28.7759 24.2482 28.8269 23.1305C28.8821 21.9222 28.8936 21.5597 28.8936 18.5003C28.8936 15.441 28.8821 15.0785 28.8269 13.8701C28.7759 12.7524 28.5894 12.1462 28.4321 11.742C28.2238 11.2076 27.9769 10.8253 27.5759 10.4243C27.206 10.0441 26.7558 9.75159 26.2582 9.56803C25.854 9.41074 25.2478 9.22428 24.13 9.17324ZM18.0363 22.0326C18.8536 22.3729 19.7638 22.4188 20.6112 22.1625C21.4587 21.9063 22.1909 21.3638 22.6828 20.6277C23.1747 19.8915 23.3957 19.0075 23.3082 18.1265C23.2207 17.2455 22.8301 16.4222 22.203 15.7972C21.8032 15.3977 21.3198 15.0918 20.7877 14.9015C20.2555 14.7112 19.6878 14.6413 19.1254 14.6968C18.5629 14.7523 18.0198 14.9318 17.535 15.2223C17.0503 15.5129 16.636 15.9074 16.322 16.3773C16.008 16.8472 15.8021 17.3808 15.7191 17.9399C15.6361 18.4989 15.6781 19.0694 15.8421 19.6102C16.006 20.1511 16.2878 20.6489 16.6673 21.0677C17.0467 21.4866 17.5142 21.8161 18.0363 22.0326ZM15.3353 14.3357C15.8822 13.7888 16.5314 13.355 17.246 13.059C17.9605 12.7631 18.7264 12.6107 19.4998 12.6107C20.2733 12.6107 21.0391 12.7631 21.7537 13.059C22.4683 13.355 23.1175 13.7888 23.6644 14.3357C24.2113 14.8826 24.6451 15.5319 24.9411 16.2465C25.2371 16.961 25.3894 17.7269 25.3894 18.5003C25.3894 19.2738 25.2371 20.0396 24.9411 20.7542C24.6451 21.4687 24.2113 22.118 23.6644 22.6649C22.5599 23.7694 21.0619 24.3899 19.4998 24.3899C17.9378 24.3899 16.4398 23.7694 15.3353 22.6649C14.2307 21.5604 13.6102 20.0623 13.6102 18.5003C13.6102 16.9383 14.2307 15.4403 15.3353 14.3357ZM26.6957 13.4878C26.8312 13.36 26.9397 13.2062 27.0147 13.0357C27.0898 12.8652 27.1298 12.6813 27.1326 12.495C27.1353 12.3088 27.1006 12.1238 27.0305 11.9512C26.9605 11.7785 26.8565 11.6217 26.7248 11.4899C26.5931 11.3582 26.4362 11.2542 26.2636 11.1842C26.0909 11.1142 25.906 11.0795 25.7197 11.0822C25.5334 11.0849 25.3496 11.125 25.179 11.2C25.0085 11.2751 24.8548 11.3835 24.7269 11.5191C24.4783 11.7826 24.3422 12.1327 24.3474 12.495C24.3527 12.8573 24.499 13.2033 24.7552 13.4595C25.0114 13.7157 25.3574 13.862 25.7197 13.8673C26.082 13.8726 26.4321 13.7365 26.6957 13.4878Z" fill="black" fill-opacity="0.59"/>
<defs>
<clipPath id="clip0_191_37">
<rect width="32" height="34" fill="white" transform="translate(273 1)"/>
</clipPath>
</defs>
</svg>
